<svg width="140" height="372" viewBox="0 0 140 372" fill="none" xmlns="http://www.w3.org/2000/svg">
<g filter="url(#filter0_f_29_525)">
<path d="M190.889 19.8729C190.729 18.6868 189.919 17.4674 188.459 16.2148C185.719 15.0154 182.37 13.9028 178.414 12.8769C173.354 12.1409 167.82 11.604 161.811 11.2662C155.043 11.4223 148.009 11.8653 140.706 12.5953C133.116 13.9596 125.512 15.6604 117.896 17.6978C110.521 20.4231 103.399 23.4875 96.5303 26.8911C90.4189 30.9384 84.8004 35.2783 79.6746 39.9108C75.731 45.0477 72.4574 50.3864 69.8536 55.9271C68.7015 61.7543 68.3058 67.6602 68.6664 73.6445C70.5475 79.6484 73.1651 85.5916 76.5191 91.4742C81.2447 97.0967 86.5795 102.523 92.5235 107.754C99.4865 112.473 106.839 116.884 114.581 120.987C122.829 124.392 131.184 127.418 139.644 130.066C148.009 131.923 156.17 133.383 164.13 134.445C171.384 134.737 178.145 134.668 184.415 134.24C189.453 133.172 193.77 131.836 197.367 130.231C199.365 128.214 200.512 126.061 200.807 123.772C199.355 121.365 197.039 118.979 193.858 116.613C189.03 114.45 183.448 112.466 177.113 110.662C169.47 109.361 161.297 108.376 152.593 107.708C143.119 107.782 133.421 108.269 123.499 109.168C113.471 110.947 103.567 113.178 93.7859 115.862C84.5993 119.442 75.8759 123.449 67.6156 127.885C60.5846 133.104 54.2997 138.665 48.7612 144.567C44.9282 151.026 42.0256 157.687 40.0532 164.552C40.0315 171.659 40.9958 178.798 42.946 185.969C46.8187 193.024 51.5931 199.931 57.2692 206.69C64.5631 212.981 72.5428 218.961 81.2083 224.628C90.9466 229.535 101.051 234.005 111.52 238.04C122.35 241.121 133.163 243.702 143.962 245.783C154.336 246.849 164.307 247.421 173.873 247.497C182.271 246.642 189.924 245.369 196.832 243.677C201.977 241.272 206.134 238.587 209.303 235.621C210.35 232.269 210.302 228.819 209.157 225.27C205.828 221.724 201.449 218.28 196.021 214.939C188.655 211.999 180.438 209.352 171.368 206.998C160.892 205.397 149.888 204.243 138.356 203.535C126.163 203.832 113.849 204.67 101.416 206.047C89.1769 208.544 77.2525 211.599 65.6423 215.214C55.0767 219.904 45.225 225.092 36.0874 230.778C28.7143 237.343 22.3622 244.272 17.0311 251.565C13.9493 259.409 12.0566 267.429 11.3532 275.625C13.0737 283.958 15.9856 292.249 20.089 300.498C26.4487 308.441 33.8321 316.125 42.2393 323.551C52.4094 330.262 63.2857 336.529 74.8681 342.352C87.4578 347.145 100.328 351.369 113.48 355.024C126.722 357.472 139.771 359.304 152.626 360.52C164.623 360.522 175.969 359.947 186.665 358.797C195.656 356.597 203.622 353.944 210.563 350.838C215.178 347.001 218.531 342.902 220.625 338.538" stroke="url(#paint0_linear_29_525)" stroke-width="5"/>
</g>
<defs>
<filter id="filter0_f_29_525" x="0.831299" y="0.764648" width="230.047" height="370.255" filterUnits="userSpaceOnUse" color-interpolation-filters="sRGB">
<feFlood flood-opacity="0" result="BackgroundImageFix"/>
<feBlend mode="normal" in="SourceGraphic" in2="BackgroundImageFix" result="shape"/>
<feGaussianBlur stdDeviation="4" result="effect1_foregroundBlur_29_525"/>
</filter>
<linearGradient id="paint0_linear_29_525" x1="142.311" y1="9.4252" x2="111.584" y2="356.89" gradientUnits="userSpaceOnUse">
<stop offset="0.104167" stop-color="#A7CF3A" stop-opacity="0.38"/>
<stop offset="0.572917" stop-color="#63CAD8" stop-opacity="0.56"/>
<stop offset="0.833333" stop-color="#A77FB6"/>
<stop offset="1" stop-color="#00213A" stop-opacity="0.69"/>
</linearGradient>
</defs>
</svg>
